<svg width="717" height="64" viewBox="0 0 717 64" fill="none" xmlns="http://www.w3.org/2000/svg">
<g clip-path="url(#clip0)">
<path d="M717 -6491.2H-1331.57V1230.4H717V-6491.2Z" fill="white"/>
<path d="M907.599 93.6721L734.952 -429.044" stroke="#E89E94" stroke-width="3" stroke-linecap="square"/>
<path d="M192.989 85.7378L349.026 -9.00344" stroke="#AD5A5A" stroke-width="3" stroke-linecap="square"/>
<path d="M515.482 304.432L181.647 -394.289" stroke="#9A779A" stroke-width="3" stroke-linecap="square"/>
<path d="M178.837 128.377L737.387 -422.448" stroke="#D185A9" stroke-width="3" stroke-linecap="square"/>
<path d="M596.484 349.308L734.773 -416.013" stroke="#AD5A5A" stroke-width="3" stroke-linecap="square"/>
<path d="M596.452 349.308L439.999 -922.154" stroke="#AD5A5A" stroke-width="3" stroke-linecap="square"/>
<path d="M513.285 308.458L611.302 -150.932" stroke="#E89E94" stroke-width="3" stroke-linecap="square"/>
<path d="M598.587 -150.065L213.474 197.466" stroke="#E89E94" stroke-width="3" stroke-linecap="square"/>
<path d="M598.587 -150.065L213.474 197.466" stroke="#E89E94" stroke-width="3" stroke-linecap="square"/>
<path d="M86.5953 85.1291L186.762 -399.317" stroke="#D185A9" stroke-width="3" stroke-linecap="square"/>
<path d="M86.5866 85.1291L437.185 -929.036" stroke="#D185A9" stroke-width="3" stroke-linecap="square"/>
<path d="M907.612 93.6907L184.967 -400.327" stroke="#E89E94" stroke-width="3" stroke-linecap="square"/>
<path d="M784.919 327.685L607.716 -152.921" stroke="#D185A9" stroke-width="3" stroke-linecap="square"/>
<path d="M782.652 331.72L98.3197 -762.023" stroke="#AD5A5A" stroke-width="3" stroke-linecap="square"/>
<path d="M4.75201 86.5775L96.2532 -757.191" stroke="#E89E94" stroke-width="3" stroke-linecap="square"/>
<path d="M-225.55 -24.8132L188.261 -403.748" stroke="#AD5A5A" stroke-width="3" stroke-linecap="square"/>
<path d="M597.206 349.706L907.199 94.4509" stroke="#9A779A" stroke-width="4" stroke-linecap="square"/>
</g>
<defs>
<clipPath id="clip0">
<rect width="717" height="64" fill="white"/>
</clipPath>
</defs>
</svg>
