<svg width="439" height="53" viewBox="0 0 439 53" fill="none" xmlns="http://www.w3.org/2000/svg">
<path d="M113.452 23.0277L108.741 23.218C108.082 20.2214 104.879 18.9371 102.006 18.9847C99.7918 19.0322 97.3425 19.7933 96.0236 21.5056C95.3641 22.3618 95.1286 23.4558 95.2228 24.5974C95.4583 28.0221 99.1795 28.4502 102.712 28.7832C107.234 29.3539 112.839 30.5431 114.111 35.8704C114.253 36.5839 114.347 37.3925 114.347 38.0584C114.347 44.4798 108.035 48.1899 102.1 48.1899C97.0127 48.1899 90.8422 45.1457 90.2299 39.2L90.1828 38.2963L94.9873 38.2011L95.0344 38.9146V38.7244C95.3641 41.8161 99.0853 43.4333 102.147 43.4333C105.68 43.4333 109.542 41.4356 109.542 38.0109C109.542 37.6779 109.495 37.2974 109.401 36.8693C108.836 34.3483 105.444 33.9202 102.147 33.5873C97.0127 33.0641 90.9835 31.9225 90.4654 24.9779V25.0255C90.277 22.7899 90.8422 20.5543 92.2553 18.6993C94.4692 15.7978 98.4258 14.2757 102.241 14.2757C107.328 14.2757 112.604 16.9393 113.452 23.0277ZM158.779 31.2566C158.779 27.8318 157.413 24.8352 155.293 22.6472C153.08 20.4116 150.018 19.0322 146.768 19.0322C143.518 19.0322 140.503 20.4116 138.336 22.6472C136.17 24.8352 134.804 27.8794 134.804 31.2566C134.804 34.6337 136.17 37.6779 138.336 39.8659C140.503 42.1015 143.518 43.4809 146.768 43.4809C150.018 43.4809 153.08 42.1015 155.293 39.8659C157.413 37.6779 158.779 34.6813 158.779 31.2566ZM129.999 31.2566C129.999 26.5476 131.93 22.3142 134.898 19.2225C137.912 16.1307 142.152 14.1805 146.768 14.1805C151.431 14.1805 155.623 16.1307 158.685 19.2225C161.652 22.3142 163.584 26.5476 163.584 31.2566C163.584 35.9655 161.652 40.1989 158.685 43.2906C155.623 46.43 151.431 48.3326 146.768 48.3326C142.152 48.3326 137.912 46.43 134.898 43.2906C131.93 40.1989 129.999 35.9655 129.999 31.2566ZM192.849 48.2375C187.055 48.2375 180.649 44.7176 180.649 37.9157V14.6562H185.454V37.9633C185.454 41.6258 189.363 43.4333 192.849 43.4333C196.287 43.4333 200.197 41.5783 200.197 37.9157V14.6562H205.001V37.9633C205.001 44.7176 198.501 48.2375 192.849 48.2375ZM226.918 14.6562V43.1004H242.415V47.9045H222.161V14.6562H226.918ZM263.155 14.6562V28.688H277.097V14.6562H281.902V47.9045H277.097V33.4446H263.155V47.9045H258.397V14.6562H263.155ZM303.583 33.6824V43.1004H318.892V47.9045H298.779V14.6562H318.845V19.4603H303.583V28.8307H318.515V33.6824H303.583ZM347.733 21.8386L343.588 33.5873H351.784L347.733 21.8386ZM357.578 47.9045L353.621 38.106H341.798C340.526 41.1502 338.878 45.1457 337.841 47.9045H332.707L345.943 14.1805H349.429L362.665 47.9045H357.578ZM383.687 33.3019V31.0187H389.245C393.249 31.0187 395.227 28.1172 395.227 25.2157C395.227 22.3618 393.249 19.4603 389.245 19.4603H381.944V47.9045H377.234V14.6086H389.245C396.405 14.6086 399.985 19.936 399.985 25.2157C399.985 29.9247 397.111 34.3959 391.459 35.3948L401.869 47.9045H395.698L383.687 33.3019ZM429.061 48.0472H424.304V19.4603H414.318V14.6086H439V19.4603H429.061V48.0472Z" fill="white"/>
<path d="M30.1542 5.13612L55.8288 49.7341H4.47963L30.1542 5.13612ZM58.9641 51.559L45.0392 27.3724H58.958V25.5484H43.9923L40.2263 19.0095H58.958V17.1854H39.1763L35.4111 10.6465H58.958V8.82167H34.3611L30.1542 1.5144L25.9473 8.82167H1.35038V10.6465H24.8942L21.129 17.1854H1.35038V19.0095H20.0821L16.3161 25.5484H1.35038V27.3724H15.2692L1.34424 51.559H58.9641Z" fill="white"/>
<path d="M5.80642 48.943H54.4509L30.129 6.7065L5.80642 48.943ZM57.1246 50.4986H3.1335L30.129 3.61927L57.1246 50.4986ZM2.67292 50.767H57.5844L43.6679 26.6012H58.1478V26.3344H43.5174L38.8578 18.2457H58.1478V17.9781H38.7043L34.0455 9.89018H58.1478V9.62261H33.892L30.129 3.08723L26.3653 9.62261H2.11024V9.89018H26.2087L21.5499 17.9781H2.11024V18.2457H21.3995L16.7399 26.3344H2.11024V26.6012H16.5894L2.67292 50.767ZM60.2581 52.3227H0L13.9157 28.1569H0.574961V24.7787H15.8579L18.7258 19.8014H0.574961V16.4224H20.6679L23.535 11.4459H0.574961V8.06693H25.4833L30.129 0L34.774 8.06693H59.6831V11.4459H36.7192L39.5863 16.4224H59.6831V19.8014H41.5315L44.3987 24.7787H59.6831V28.1569H46.3416L60.2581 52.3227Z" fill="white"/>
<path d="M37.2564 39.4723H23.0014L30.1289 26.9872L37.2564 39.4723ZM40.3784 41.2955L30.1289 23.3508L19.8794 41.2955H40.3784Z" fill="white"/>
<mask id="mask0" mask-type="alpha" maskUnits="userSpaceOnUse" x="19" y="23" width="22" height="19">
<path d="M19.9853 41.2206L30.285 23.4686L40.5848 41.2206H19.9853ZM30.285 27.0653L23.1226 39.4169H37.4475L30.285 27.0653Z" fill="white"/>
</mask>
<g mask="url(#mask0)">
<path d="M16.1283 45.0674H44.4418V19.6195H16.1283V45.0674Z" fill="white"/>
</g>
<path d="M24.1031 38.7875H35.6916L29.897 28.6058L24.1031 38.7875ZM38.3518 40.3475H21.4421L29.897 25.4907L38.3518 40.3475ZM20.9833 40.6158H38.8114L29.897 24.9595L20.9833 40.6158ZM41.4724 42.1757H18.3215L29.897 21.8451L41.4724 42.1757Z" fill="white"/>
</svg>
